<svg xmlns="http://www.w3.org/2000/svg" viewBox="0 0 939.01 336.11"><defs><style>.cls-1{fill:#27241e;}.cls-2{font-size:90px;fill:#22166c;stroke:#fff;stroke-miterlimit:10;}.cls-2,.cls-7{font-family:RobloxFont-Regular, Roblox Font;}.cls-3{letter-spacing:-0.05em;}.cls-4{letter-spacing:-0.06em;}.cls-5{letter-spacing:0em;}.cls-6{letter-spacing:-0.04em;}.cls-7{font-size:36px;fill:#b5c7f0;}</style></defs><g id="Capa_2" data-name="Capa 2"><g id="Capa_1-2" data-name="Capa 1"><path class="cls-1" d="M569.66,174c-16.79-8.22-39.53-12.93-65.71-1.66,0,0,45.15,24.51,67.19,47.82,0,0-77.69-52.24-95.89-55.86S428,166.74,419.6,176c0,0,11.55-18.49,11.55-41s1.75-43.8,6.3-52.64c3.67-7.12,6.2-16.07,11.07-22.22a7.53,7.53,0,0,1,7.78-2.79c4.15,1,11,2.2,17.17.78a1.7,1.7,0,0,1,1.68,2.52l0,.06c-.79,1.66-5.38,2.41-3.81,7.23s14.05,16.88,15.1,16.88,5.9,4.37,11.28-3.61c0,0,6-15.83-1.83-31.5,0,0,4.59,7.54,5.38,10.85,0,0,2.89-10.09,2.1-16.12,0,0-.14,14-2.37,20.34,0,0-.65,14-2.36,16.88a9.74,9.74,0,0,0,6,3.31,7.7,7.7,0,0,0,7.88-4.07c2.62-5,10.36-38.72,9.44-47,0,0-9.71-9.19-19.82-9.64,0,0,14.84.75,21.4,9,0,0-5,36-10,47.76,0,0,3.28,6.94,11.95,4.83s8-6.18,8-6.18,1.45-37.07-.65-45.36c0,0-9.06-13.11-14.44-14.31,0,0,12.21,6.48,15.09,14.91s.53,44,.53,44,7.61,3.77,10-7.38-.66-45.21-.66-45.21-.52-15.21-24-12.8A192.92,192.92,0,0,1,477.22,2.39c-22.31-8.74-36.49,9.34-36.49,9.34l-8,11.45-65.36,77.15L334,144.94s-27.17,41-24.68,73.68S336,265.79,336,265.79s19.68,11.75,32.81,8.44c0,0,25.16-4.46,37.4-8.56a31,31,0,0,1,14.47-1.32c13.37,2,37.74,5.61,40.39,6.26l-9.38-.93a212.86,212.86,0,0,0-69.5,4.62c-5.86,1.37-10.73,2.21-12.46,1.73,0,0,26.77,37.37,80.06,48.22s76.12-14.76,76.12-14.76-8.14-35.87-40.42-52.14c0,0,37.27,17.78,44.62,52.14,0,0,60.15,9.77,69.27-75.71,2.69-25.28-9.3-49.77-29.72-59.76Z"/><text class="cls-2" transform="translate(172.96 273.78) scale(1.03 1)">Tea<tspan class="cls-3" x="131.58" y="0">m</tspan><tspan class="cls-4" x="213.21" y="0">C</tspan><tspan class="cls-5" x="270.81" y="0">astil</tspan><tspan class="cls-6" x="469.35" y="0">l</tspan><tspan class="cls-5" x="511.92" y="0">o</tspan></text><rect x="126" y="138" width="22" height="192"/><rect x="96" y="138" width="22" height="192"/><rect x="66" y="200" width="22" height="74"/><rect x="19" y="209" width="22" height="60" transform="translate(-209 269) rotate(-90)"/><rect x="791" y="144.1" width="22" height="192" transform="translate(1604.36 478.98) rotate(179.91)"/><rect x="821" y="144.05" width="22" height="192" transform="translate(1664.36 478.84) rotate(179.91)"/><rect x="851" y="200" width="22" height="74" transform="translate(1724.35 472.71) rotate(179.91)"/><rect x="897.99" y="204.93" width="22" height="60" transform="translate(1142.55 -674.41) rotate(89.91)"/><text class="cls-7" transform="translate(330.5 320.14)">Personal Trainer</text></g></g></svg>